<svg width="25" height="24" viewBox="0 0 25 24" fill="none" xmlns="http://www.w3.org/2000/svg">
<path d="M11.2394 0.690968C11.5387 -0.230343 12.8421 -0.230344 13.1415 0.690967L15.3336 7.43768C15.4675 7.8497 15.8515 8.12866 16.2847 8.12866H23.3786C24.3473 8.12866 24.7501 9.36828 23.9664 9.93768L18.2273 14.1074C17.8768 14.362 17.7301 14.8134 17.864 15.2254L20.0562 21.9721C20.3555 22.8934 19.301 23.6596 18.5173 23.0902L12.7782 18.9205C12.4277 18.6658 11.9531 18.6658 11.6026 18.9205L5.86355 23.0902C5.07984 23.6596 4.02535 22.8934 4.32471 21.9721L6.51685 15.2254C6.65072 14.8134 6.50406 14.362 6.15358 14.1074L0.414481 9.93768C-0.369233 9.36828 0.0335415 8.12866 1.00226 8.12866H8.09618C8.5294 8.12866 8.91336 7.8497 9.04723 7.43768L11.2394 0.690968Z" fill="#FFB800"/>
</svg>
